ffmpeg started on 2016-12-08 at 19:35:35
Report written to "Output/x264/results/ffmpeg/sintelveryslow7000k.log"
Command line:
Tools/ffmpeg/ffmpeg -benchmark -y -i Input/y4m/sintel.y4m -c:v libx264 -preset veryslow -b:v 7000k -an Output/x264/encoded/sintelveryslow7000k.mkv
ffmpeg version N-82227-gdb23fde Copyright (c) 2000-2016 the FFmpeg developers
  built with gcc 5.4.0 (Ubuntu 5.4.0-6ubuntu1~16.04.2) 20160609
  configuration: --prefix=/home/jaroslav/ffmpeg_build --pkg-config-flags=--static --extra-cflags=-I/home/jaroslav/ffmpeg_build/include --extra-ldflags=-L/home/jaroslav/ffmpeg_build/lib --bindir=/home/jaroslav/bin --enable-gpl --enable-libass --enable-libfdk-aac --enable-libfreetype --enable-libmp3lame --enable-libopus --enable-libtheora --enable-libvorbis --enable-libvpx --enable-libx264 --enable-libx265 --enable-nvenc --enable-libmfx --enable-libxvid --enable-libgsm --enable-libopencore-amrnb --enable-version3 --enable-nonfree
  libavutil      55. 35.100 / 55. 35.100
  libavcodec     57. 66.101 / 57. 66.101
  libavformat    57. 57.100 / 57. 57.100
  libavdevice    57.  2.100 / 57.  2.100
  libavfilter     6. 66.100 /  6. 66.100
  libswscale      4.  3.100 /  4.  3.100
  libswresample   2.  4.100 /  2.  4.100
  libpostproc    54.  2.100 / 54.  2.100
Input #0, yuv4mpegpipe, from 'Input/y4m/sintel.y4m':
  Duration: 00:00:20.83, start: 0.000000, bitrate: 2057307 kb/s
    Stream #0:0: Video: rawvideo (I420 / 0x30323449), yuv420p(progressive), 4096x1744, SAR 1:1 DAR 256:109, 24 fps, 24 tbr, 24 tbn, 24 tbc
[libx264 @ 0x312e1c0] using SAR=1/1
[libx264 @ 0x312e1c0] DPB size (16 frames, 446464 mbs) > level limit (6 frames, 184320 mbs)
[libx264 @ 0x312e1c0] using cpu capabilities: MMX2 SSE2Fast SSSE3 SSE4.2 AVX FMA3 AVX2 LZCNT BMI2
[libx264 @ 0x312e1c0] profile High, level 5.2
[libx264 @ 0x312e1c0] 264 - core 148 - H.264/MPEG-4 AVC codec - Copyleft 2003-2016 - http://www.videolan.org/x264.html - options: cabac=1 ref=16 deblock=1:0:0 analyse=0x3:0x133 me=umh subme=10 psy=1 psy_rd=1.00:0.00 mixed_ref=1 me_range=24 chroma_me=1 trellis=2 8x8dct=1 cqm=0 deadzone=21,11 fast_pskip=1 chroma_qp_offset=-2 threads=6 lookahead_threads=1 sliced_threads=0 nr=0 decimate=1 interlaced=0 bluray_compat=0 constrained_intra=0 bframes=8 b_pyramid=2 b_adapt=2 b_bias=0 direct=3 weightb=1 open_gop=0 weightp=2 keyint=250 keyint_min=24 scenecut=40 intra_refresh=0 rc_lookahead=60 rc=abr mbtree=1 bitrate=7000 ratetol=1.0 qcomp=0.60 qpmin=0 qpmax=69 qpstep=4 ip_ratio=1.40 aq=1:1.00
Output #0, matroska, to 'Output/x264/encoded/sintelveryslow7000k.mkv':
  Metadata:
    encoder         : Lavf57.57.100
    Stream #0:0: Video: h264 (libx264) (H264 / 0x34363248), yuv420p, 4096x1744 [SAR 1:1 DAR 256:109], q=-1--1, 7000 kb/s, 24 fps, 1k tbn, 24 tbc
    Metadata:
      encoder         : Lavc57.66.101 libx264
    Side data:
      cpb: bitrate max/min/avg: 0/0/7000000 buffer size: 0 vbv_delay: -1
Stream mapping:
  Stream #0:0 -> #0:0 (rawvideo (native) -> h264 (libx264))
Press [q] to stop, [?] for help
frame=    6 fps=0.0 q=0.0 size=       0kB time=00:00:00.00 bitrate=N/A speed=   0x    frame=   14 fps= 14 q=0.0 size=       0kB time=00:00:00.00 bitrate=N/A speed=   0x    frame=   22 fps= 14 q=0.0 size=       0kB time=00:00:00.00 bitrate=N/A speed=   0x    frame=   30 fps= 15 q=0.0 size=       0kB time=00:00:00.00 bitrate=N/A speed=   0x    frame=   38 fps= 15 q=0.0 size=       0kB time=00:00:00.00 bitrate=N/A speed=   0x    frame=   46 fps= 15 q=0.0 size=       0kB time=00:00:00.00 bitrate=N/A speed=   0x    frame=   55 fps= 15 q=0.0 size=       0kB time=00:00:00.00 bitrate=N/A speed=   0x    frame=   64 fps= 15 q=0.0 size=       0kB time=00:00:00.00 bitrate=N/A speed=   0x    frame=   70 fps=9.7 q=0.0 size=       0kB time=00:00:00.00 bitrate=N/A speed=   0x    frame=   71 fps=6.8 q=0.0 size=       0kB time=00:00:00.00 bitrate=N/A speed=   0x    frame=   72 fps=3.2 q=0.0 size=       0kB time=00:00:00.00 bitrate=N/A speed=   0x    frame=   76 fps=3.2 q=27.0 size=       1kB time=-00:00:00.08 bitrate=N/A speed=N/A    frame=   79 fps=3.1 q=33.0 size=       1kB time=00:00:00.04 bitrate= 136.9kbits/s speed=0.00171x    frame=   80 fps=3.1 q=44.0 size=       1kB time=00:00:00.08 bitrate=  70.1kbits/s speed=0.00327x    frame=   81 fps=3.0 q=39.0 size=       1kB time=00:00:00.12 bitrate=  46.7kbits/s speed=0.00467x    frame=   82 fps=2.8 q=42.0 size=       1kB time=00:00:00.16 bitrate=  35.0kbits/s speed=0.00577x    frame=   83 fps=2.8 q=45.0 size=       1kB time=00:00:00.20 bitrate=  28.2kbits/s speed=0.00702x    frame=   88 fps=2.8 q=45.0 size=       1kB time=00:00:00.41 bitrate=  14.1kbits/s speed=0.0131x    frame=   89 fps=2.7 q=44.0 size=       1kB time=00:00:00.45 bitrate=  12.8kbits/s speed=0.0139x    frame=   90 fps=2.7 q=44.0 size=       1kB time=00:00:00.50 bitrate=  11.8kbits/s speed=0.0149x    frame=   91 fps=2.6 q=44.0 size=       1kB time=00:00:00.54 bitrate=  10.8kbits/s speed=0.0157x    frame=   92 fps=2.6 q=44.0 size=       1kB time=00:00:00.58 bitrate=  10.1kbits/s speed=0.0165x    frame=   93 fps=2.5 q=45.0 size=       1kB time=00:00:00.62 bitrate=   9.4kbits/s speed=0.0168x    frame=   94 fps=2.5 q=44.0 size=       1kB time=00:00:00.66 bitrate=   8.8kbits/s speed=0.0177x    frame=   96 fps=2.4 q=44.0 size=       1kB time=00:00:00.75 bitrate=   7.8kbits/s speed=0.0186x    frame=   97 fps=2.4 q=44.0 size=       1kB time=00:00:00.79 bitrate=   7.4kbits/s speed=0.0193x    frame=   98 fps=2.3 q=44.0 size=       1kB time=00:00:00.83 bitrate=   7.1kbits/s speed=0.0196x    frame=   99 fps=2.3 q=44.0 size=       1kB time=00:00:00.87 bitrate=   6.7kbits/s speed=0.02x    frame=  100 fps=2.2 q=44.0 size=       1kB time=00:00:00.91 bitrate=   6.4kbits/s speed=0.0205x    frame=  101 fps=2.2 q=44.0 size=       1kB time=00:00:00.95 bitrate=   6.1kbits/s speed=0.021x    frame=  102 fps=2.2 q=44.0 size=       1kB time=00:00:01.00 bitrate=   5.9kbits/s speed=0.0216x    frame=  103 fps=2.2 q=44.0 size=       1kB time=00:00:01.04 bitrate=   5.6kbits/s speed=0.0221x    frame=  104 fps=2.2 q=44.0 size=       1kB time=00:00:01.08 bitrate=   5.4kbits/s speed=0.0227x    frame=  105 fps=2.1 q=43.0 size=       1kB time=00:00:01.12 bitrate=   5.2kbits/s speed=0.0225x    frame=  106 fps=2.1 q=43.0 size=       1kB time=00:00:01.16 bitrate=   5.0kbits/s speed=0.0229x    frame=  107 fps=2.1 q=43.0 size=       1kB time=00:00:01.20 bitrate=   4.9kbits/s speed=0.0232x    frame=  108 fps=2.0 q=43.0 size=       1kB time=00:00:01.25 bitrate=   4.7kbits/s speed=0.0236x    frame=  109 fps=2.0 q=43.0 size=       1kB time=00:00:01.29 bitrate=   4.6kbits/s speed=0.0239x    frame=  110 fps=2.0 q=43.0 size=       1kB time=00:00:01.33 bitrate=   4.4kbits/s speed=0.0244x    frame=  111 fps=2.0 q=43.0 size=       1kB time=00:00:01.37 bitrate=   4.3kbits/s speed=0.0244x    frame=  112 fps=1.9 q=43.0 size=       1kB time=00:00:01.41 bitrate=   4.2kbits/s speed=0.0246x    frame=  113 fps=1.9 q=43.0 size=       1kB time=00:00:01.45 bitrate=   4.0kbits/s speed=0.025x    frame=  114 fps=1.9 q=43.0 size=       1kB time=00:00:01.50 bitrate=   3.9kbits/s speed=0.0253x    frame=  115 fps=1.9 q=43.0 size=       1kB time=00:00:01.54 bitrate=   3.8kbits/s speed=0.0256x    frame=  116 fps=1.9 q=42.0 size=       1kB time=00:00:01.58 bitrate=   3.7kbits/s speed=0.0259x    frame=  117 fps=1.9 q=42.0 size=       1kB time=00:00:01.62 bitrate=   3.6kbits/s speed=0.0263x    frame=  118 fps=1.9 q=42.0 size=       1kB time=00:00:01.66 bitrate=   3.5kbits/s speed=0.0265x    frame=  119 fps=1.9 q=42.0 size=       1kB time=00:00:01.70 bitrate=   3.4kbits/s speed=0.0268x    frame=  120 fps=1.9 q=42.0 size=       1kB time=00:00:01.75 bitrate=   3.4kbits/s speed=0.0273x    frame=  121 fps=1.8 q=42.0 size=       1kB time=00:00:01.79 bitrate=   3.3kbits/s speed=0.0273x    frame=  122 fps=1.8 q=42.0 size=       1kB time=00:00:01.83 bitrate=   3.2kbits/s speed=0.0276x    frame=  123 fps=1.8 q=42.0 size=       1kB time=00:00:01.87 bitrate=   3.1kbits/s speed=0.028x    frame=  124 fps=1.8 q=42.0 size=       1kB time=00:00:01.91 bitrate=   3.1kbits/s speed=0.0284x    frame=  125 fps=1.8 q=42.0 size=       1kB time=00:00:01.95 bitrate=   3.0kbits/s speed=0.0287x    frame=  126 fps=1.8 q=42.0 size=       1kB time=00:00:02.00 bitrate=   2.9kbits/s speed=0.0289x    frame=  127 fps=1.8 q=42.0 size=       1kB time=00:00:02.04 bitrate=   2.9kbits/s speed=0.0288x    frame=  128 fps=1.8 q=42.0 size=       1kB time=00:00:02.08 bitrate=   2.8kbits/s speed=0.0289x    frame=  129 fps=1.8 q=42.0 size=       1kB time=00:00:02.12 bitrate=   2.8kbits/s speed=0.029x    frame=  130 fps=1.7 q=41.0 size=       1kB time=00:00:02.16 bitrate=   2.7kbits/s speed=0.029x    frame=  131 fps=1.7 q=41.0 size=       1kB time=00:00:02.20 bitrate=   2.7kbits/s speed=0.029x    frame=  132 fps=1.7 q=41.0 size=       1kB time=00:00:02.25 bitrate=   2.6kbits/s speed=0.0292x    frame=  133 fps=1.7 q=41.0 size=       1kB time=00:00:02.29 bitrate=   2.6kbits/s speed=0.0294x    frame=  134 fps=1.7 q=41.0 size=       1kB time=00:00:02.33 bitrate=   2.5kbits/s speed=0.0295x    frame=  135 fps=1.7 q=41.0 size=       1kB time=00:00:02.37 bitrate=   2.5kbits/s speed=0.0297x    frame=  136 fps=1.7 q=41.0 size=       1kB time=00:00:02.41 bitrate=   2.4kbits/s speed=0.0295x    frame=  137 fps=1.7 q=41.0 size=       1kB time=00:00:02.45 bitrate=   2.4kbits/s speed=0.0297x    frame=  138 fps=1.6 q=41.0 size=       1kB time=00:00:02.50 bitrate=   2.4kbits/s speed=0.0296x    frame=  139 fps=1.6 q=41.0 size=       1kB time=00:00:02.54 bitrate=   2.3kbits/s speed=0.0298x    frame=  140 fps=1.6 q=41.0 size=       1kB time=00:00:02.58 bitrate=   2.3kbits/s speed=0.03x    frame=  141 fps=1.6 q=41.0 size=       1kB time=00:00:02.62 bitrate=   2.2kbits/s speed=0.0303x    frame=  142 fps=1.6 q=41.0 size=       1kB time=00:00:02.66 bitrate=   2.2kbits/s speed=0.0295x    frame=  144 fps=1.6 q=41.0 size=       1kB time=00:00:02.75 bitrate=   2.1kbits/s speed=0.0299x    frame=  145 fps=1.6 q=41.0 size=       1kB time=00:00:02.79 bitrate=   2.1kbits/s speed=0.0302x    frame=  146 fps=1.6 q=41.0 size=       1kB time=00:00:02.83 bitrate=   2.1kbits/s speed=0.0303x    frame=  147 fps=1.6 q=41.0 size=       1kB time=00:00:02.87 bitrate=   2.0kbits/s speed=0.0304x    frame=  148 fps=1.5 q=41.0 size=       1kB time=00:00:02.91 bitrate=   2.0kbits/s speed=0.03x    frame=  149 fps=1.5 q=41.0 size=       1kB time=00:00:02.95 bitrate=   2.0kbits/s speed=0.0302x    frame=  150 fps=1.5 q=41.0 size=       1kB time=00:00:03.00 bitrate=   2.0kbits/s speed=0.0302x    frame=  151 fps=1.5 q=41.0 size=       1kB time=00:00:03.04 bitrate=   1.9kbits/s speed=0.0302x    frame=  152 fps=1.5 q=41.0 size=       1kB time=00:00:03.08 bitrate=   1.9kbits/s speed=0.0304x    frame=  153 fps=1.5 q=41.0 size=       1kB time=00:00:03.12 bitrate=   1.9kbits/s speed=0.0305x    frame=  154 fps=1.5 q=41.0 size=       1kB time=00:00:03.16 bitrate=   1.9kbits/s speed=0.0302x    frame=  155 fps=1.5 q=41.0 size=       1kB time=00:00:03.20 bitrate=   1.8kbits/s speed=0.0302x    frame=  156 fps=1.5 q=41.0 size=       1kB time=00:00:03.25 bitrate=   1.8kbits/s speed=0.0304x    frame=  157 fps=1.5 q=41.0 size=       1kB time=00:00:03.29 bitrate=   1.8kbits/s speed=0.0305x    frame=  158 fps=1.4 q=40.0 size=       1kB time=00:00:03.33 bitrate=   1.8kbits/s speed=0.0306x    frame=  159 fps=1.5 q=40.0 size=       1kB time=00:00:03.37 bitrate=   1.7kbits/s speed=0.0308x    frame=  160 fps=1.4 q=40.0 size=       1kB time=00:00:03.41 bitrate=   1.7kbits/s speed=0.0305x    frame=  161 fps=1.4 q=40.0 size=       1kB time=00:00:03.45 bitrate=   1.7kbits/s speed=0.0304x    frame=  162 fps=1.4 q=40.0 size=       1kB time=00:00:03.50 bitrate=   1.7kbits/s speed=0.0305x    frame=  163 fps=1.4 q=40.0 size=       1kB time=00:00:03.54 bitrate=   1.7kbits/s speed=0.0306x    frame=  164 fps=1.4 q=40.0 size=       1kB time=00:00:03.58 bitrate=   1.6kbits/s speed=0.0307x    frame=  165 fps=1.4 q=40.0 size=       1kB time=00:00:03.62 bitrate=   1.6kbits/s speed=0.0309x    frame=  166 fps=1.4 q=40.0 size=       1kB time=00:00:03.66 bitrate=   1.6kbits/s speed=0.0308x    frame=  167 fps=1.4 q=40.0 size=       1kB time=00:00:03.70 bitrate=   1.6kbits/s speed=0.0308x    frame=  168 fps=1.4 q=40.0 size=       1kB time=00:00:03.75 bitrate=   1.6kbits/s speed=0.0309x    frame=  170 fps=1.4 q=40.0 size=       1kB time=00:00:03.83 bitrate=   1.5kbits/s speed=0.0313x    frame=  171 fps=1.4 q=40.0 size=       1kB time=00:00:03.87 bitrate=   1.5kbits/s speed=0.0315x    frame=  172 fps=1.4 q=40.0 size=       1kB time=00:00:03.91 bitrate=   1.5kbits/s speed=0.031x    frame=  173 fps=1.4 q=40.0 size=       1kB time=00:00:03.95 bitrate=   1.5kbits/s speed=0.0312x    frame=  175 fps=1.4 q=40.0 size=       1kB time=00:00:04.04 bitrate=   1.5kbits/s speed=0.0317x    frame=  176 fps=1.4 q=40.0 size=       1kB time=00:00:04.08 bitrate=   1.4kbits/s speed=0.0318x    frame=  177 fps=1.4 q=40.0 size=       1kB time=00:00:04.12 bitrate=   1.4kbits/s speed=0.032x    frame=  178 fps=1.3 q=40.0 size=       1kB time=00:00:04.16 bitrate=   1.4kbits/s speed=0.0315x    frame=  179 fps=1.3 q=40.0 size=       1kB time=00:00:04.20 bitrate=   1.4kbits/s speed=0.0316x    frame=  182 fps=1.3 q=39.0 size=       1kB time=00:00:04.33 bitrate=   1.4kbits/s speed=0.032x    frame=  184 fps=1.3 q=39.0 size=       1kB time=00:00:04.41 bitrate=   1.3kbits/s speed=0.0323x    frame=  186 fps=1.3 q=39.0 size=       1kB time=00:00:04.50 bitrate=   1.3kbits/s speed=0.0326x    frame=  187 fps=1.3 q=39.0 size=       1kB time=00:00:04.54 bitrate=   1.3kbits/s speed=0.0326x    frame=  188 fps=1.3 q=39.0 size=       1kB time=00:00:04.58 bitrate=   1.3kbits/s speed=0.0325x    frame=  189 fps=1.3 q=39.0 size=       1kB time=00:00:04.62 bitrate=   1.3kbits/s speed=0.0327x    frame=  190 fps=1.3 q=39.0 size=       1kB time=00:00:04.66 bitrate=   1.3kbits/s speed=0.0327x    frame=  192 fps=1.3 q=39.0 size=       1kB time=00:00:04.75 bitrate=   1.2kbits/s speed=0.0324x    frame=  193 fps=1.3 q=39.0 size=       1kB time=00:00:04.79 bitrate=   1.2kbits/s speed=0.0326x    frame=  194 fps=1.3 q=39.0 size=       1kB time=00:00:04.83 bitrate=   1.2kbits/s speed=0.0327x    frame=  196 fps=1.3 q=39.0 size=    4306kB time=00:00:04.91 bitrate=7172.7kbits/s speed=0.033x    frame=  197 fps=1.3 q=39.0 size=    4306kB time=00:00:04.95 bitrate=7113.4kbits/s speed=0.0331x    frame=  198 fps=1.3 q=39.0 size=    4306kB time=00:00:05.00 bitrate=7053.6kbits/s speed=0.0329x    frame=  200 fps=1.3 q=39.0 size=    4306kB time=00:00:05.08 bitrate=6938.5kbits/s speed=0.0331x    frame=  201 fps=1.3 q=39.0 size=    4306kB time=00:00:05.12 bitrate=6881.6kbits/s speed=0.0332x    frame=  202 fps=1.3 q=39.0 size=    4306kB time=00:00:05.16 bitrate=6825.7kbits/s speed=0.0332x    frame=  203 fps=1.3 q=39.0 size=    4306kB time=00:00:05.20 bitrate=6772.0kbits/s speed=0.0333x    frame=  204 fps=1.3 q=39.0 size=    4306kB time=00:00:05.25 bitrate=6717.8kbits/s speed=0.0332x    frame=  205 fps=1.3 q=39.0 size=    4306kB time=00:00:05.29 bitrate=6664.5kbits/s speed=0.0334x    frame=  206 fps=1.3 q=39.0 size=    4306kB time=00:00:05.33 bitrate=6613.3kbits/s speed=0.0334x    frame=  207 fps=1.3 q=39.0 size=    4306kB time=00:00:05.37 bitrate=6561.6kbits/s speed=0.0335x    frame=  208 fps=1.3 q=39.0 size=    4306kB time=00:00:05.41 bitrate=6510.7kbits/s speed=0.0336x    frame=  209 fps=1.3 q=39.0 size=    4306kB time=00:00:05.45 bitrate=6461.8kbits/s speed=0.0337x    frame=  210 fps=1.3 q=39.0 size=    4306kB time=00:00:05.50 bitrate=6412.5kbits/s speed=0.0337x    frame=  211 fps=1.3 q=39.0 size=    4306kB time=00:00:05.54 bitrate=6363.9kbits/s speed=0.0338x    frame=  212 fps=1.3 q=39.0 size=    4306kB time=00:00:05.58 bitrate=6317.2kbits/s speed=0.0339x    frame=  213 fps=1.3 q=39.0 size=    4306kB time=00:00:05.62 bitrate=6270.0kbits/s speed=0.034x    frame=  214 fps=1.3 q=39.0 size=    4306kB time=00:00:05.66 bitrate=6223.6kbits/s speed=0.0341x    frame=  215 fps=1.3 q=39.0 size=    4306kB time=00:00:05.70 bitrate=6178.9kbits/s speed=0.0342x    frame=  216 fps=1.3 q=39.0 size=    4306kB time=00:00:05.75 bitrate=6133.7kbits/s speed=0.0342x    frame=  217 fps=1.3 q=39.0 size=    4306kB time=00:00:05.79 bitrate=6089.3kbits/s speed=0.0343x    frame=  218 fps=1.3 q=39.0 size=    4306kB time=00:00:05.83 bitrate=6046.5kbits/s speed=0.0345x    frame=  219 fps=1.3 q=39.0 size=    4306kB time=00:00:05.87 bitrate=6003.3kbits/s speed=0.0343x    frame=  220 fps=1.3 q=39.0 size=    4306kB time=00:00:05.91 bitrate=5960.7kbits/s speed=0.0345x    frame=  221 fps=1.3 q=39.0 size=    4306kB time=00:00:05.95 bitrate=5919.6kbits/s speed=0.0346x    frame=  222 fps=1.3 q=39.0 size=    4306kB time=00:00:06.00 bitrate=5878.2kbits/s speed=0.0346x    frame=  223 fps=1.3 q=39.0 size=    4306kB time=00:00:06.04 bitrate=5837.4kbits/s speed=0.0347x    frame=  225 fps=1.3 q=39.0 size=    4306kB time=00:00:06.12 bitrate=5758.3kbits/s speed=0.0348x    frame=  226 fps=1.3 q=39.0 size=    4306kB time=00:00:06.16 bitrate=5719.1kbits/s speed=0.0349x    frame=  227 fps=1.3 q=39.0 size=    4306kB time=00:00:06.20 bitrate=5681.3kbits/s speed=0.0348x    frame=  229 fps=1.3 q=39.0 size=    4306kB time=00:00:06.29 bitrate=5605.5kbits/s speed=0.035x    frame=  231 fps=1.3 q=39.0 size=    4306kB time=00:00:06.37 bitrate=5532.5kbits/s speed=0.0354x    frame=  233 fps=1.3 q=39.0 size=    4306kB time=00:00:06.45 bitrate=5461.4kbits/s speed=0.0348x    frame=  235 fps=1.3 q=39.0 size=    4306kB time=00:00:06.54 bitrate=5391.3kbits/s speed=0.0351x    frame=  236 fps=1.3 q=39.0 size=    4306kB time=00:00:06.58 bitrate=5357.7kbits/s speed=0.0352x    frame=  237 fps=1.3 q=38.0 size=    4306kB time=00:00:06.62 bitrate=5323.8kbits/s speed=0.0353x    frame=  238 fps=1.3 q=38.0 size=    4306kB time=00:00:06.66 bitrate=5290.2kbits/s speed=0.0353x    frame=  239 fps=1.3 q=38.0 size=    4306kB time=00:00:06.70 bitrate=5257.9kbits/s speed=0.0351x    frame=  240 fps=1.2 q=38.0 size=    4306kB time=00:00:06.75 bitrate=5225.2kbits/s speed=0.0351x    frame=  241 fps=1.2 q=38.0 size=    4306kB time=00:00:06.79 bitrate=5192.9kbits/s speed=0.0352x    frame=  242 fps=1.2 q=38.0 size=    4306kB time=00:00:06.83 bitrate=5161.7kbits/s speed=0.0353x    frame=  244 fps=1.3 q=38.0 size=    4306kB time=00:00:06.91 bitrate=5099.0kbits/s speed=0.0356x    frame=  245 fps=1.3 q=38.0 size=    4306kB time=00:00:06.95 bitrate=5069.0kbits/s speed=0.0356x    frame=  246 fps=1.2 q=38.0 size=    4306kB time=00:00:07.00 bitrate=5038.6kbits/s speed=0.0354x    frame=  247 fps=1.2 q=38.0 size=    4306kB time=00:00:07.04 bitrate=5008.5kbits/s speed=0.0354x    frame=  248 fps=1.2 q=38.0 size=    4306kB time=00:00:07.08 bitrate=4979.6kbits/s speed=0.0355x    frame=  250 fps=1.2 q=38.0 size=    4306kB time=00:00:07.16 bitrate=4921.2kbits/s speed=0.0357x    frame=  251 fps=1.2 q=38.0 size=    4306kB time=00:00:07.20 bitrate=4893.2kbits/s speed=0.0357x    frame=  252 fps=1.2 q=38.0 size=    4306kB time=00:00:07.25 bitrate=4864.9kbits/s speed=0.0357x    frame=  253 fps=1.2 q=38.0 size=    4306kB time=00:00:07.29 bitrate=4836.9kbits/s speed=0.0357x    frame=  255 fps=1.2 q=38.0 size=    4306kB time=00:00:07.37 bitrate=4782.4kbits/s speed=0.0358x    frame=  256 fps=1.2 q=38.0 size=    4306kB time=00:00:07.41 bitrate=4755.3kbits/s speed=0.0358x    frame=  257 fps=1.2 q=38.0 size=    4306kB time=00:00:07.45 bitrate=4729.2kbits/s speed=0.0358x    frame=  259 fps=1.2 q=38.0 size=    4306kB time=00:00:07.54 bitrate=4676.5kbits/s speed=0.036x    frame=  260 fps=1.2 q=38.0 size=    4306kB time=00:00:07.58 bitrate=4651.3kbits/s speed=0.0356x    frame=  261 fps=1.2 q=38.0 size=    4306kB time=00:00:07.62 bitrate=4625.6kbits/s speed=0.0357x    frame=  262 fps=1.2 q=38.0 size=    4306kB time=00:00:07.66 bitrate=4600.3kbits/s speed=0.0358x    frame=  266 fps=1.2 q=38.0 size=    4306kB time=00:00:07.83 bitrate=4502.8kbits/s speed=0.0363x    frame=  267 fps=1.2 q=38.0 size=    4306kB time=00:00:07.87 bitrate=4478.8kbits/s speed=0.0359x    frame=  269 fps=1.2 q=38.0 size=    4306kB time=00:00:07.95 bitrate=4432.1kbits/s speed=0.0362x    frame=  271 fps=1.2 q=38.0 size=    4306kB time=00:00:08.04 bitrate=4385.8kbits/s speed=0.0364x    frame=  272 fps=1.2 q=38.0 size=    4306kB time=00:00:08.08 bitrate=4363.6kbits/s speed=0.0365x    frame=  273 fps=1.2 q=38.0 size=    4306kB time=00:00:08.12 bitrate=4341.0kbits/s speed=0.0363x    frame=  274 fps=1.2 q=38.0 size=    4306kB time=00:00:08.16 bitrate=4318.7kbits/s speed=0.0363x    frame=  275 fps=1.2 q=38.0 size=    4306kB time=00:00:08.20 bitrate=4297.1kbits/s speed=0.0363x    frame=  276 fps=1.2 q=38.0 size=    4306kB time=00:00:08.25 bitrate=4275.3kbits/s speed=0.0364x    frame=  277 fps=1.2 q=38.0 size=    4306kB time=00:00:08.29 bitrate=4253.6kbits/s speed=0.0365x    frame=  278 fps=1.2 q=38.0 size=    4306kB time=00:00:08.33 bitrate=4232.7kbits/s speed=0.0365x    frame=  280 fps=1.2 q=38.0 size=    4306kB time=00:00:08.41 bitrate=4190.4kbits/s speed=0.0367x    frame=  281 fps=1.2 q=38.0 size=    4306kB time=00:00:08.45 bitrate=4170.1kbits/s speed=0.0366x    frame=  283 fps=1.2 q=37.0 size=    4306kB time=00:00:08.54 bitrate=4129.1kbits/s speed=0.0369x    frame=  284 fps=1.2 q=37.0 size=    4306kB time=00:00:08.58 bitrate=4109.4kbits/s speed=0.0366x    frame=  287 fps=1.2 q=37.0 size=    4306kB time=00:00:08.70 bitrate=4050.4kbits/s speed=0.037x    frame=  288 fps=1.2 q=37.0 size=    4306kB time=00:00:08.75 bitrate=4031.0kbits/s speed=0.0371x    frame=  289 fps=1.2 q=37.0 size=    4306kB time=00:00:08.79 bitrate=4011.7kbits/s speed=0.0372x    frame=  290 fps=1.2 q=37.0 size=    4306kB time=00:00:08.83 bitrate=3993.1kbits/s speed=0.0371x    frame=  291 fps=1.2 q=37.0 size=    4306kB time=00:00:08.87 bitrate=3974.2kbits/s speed=0.0371x    frame=  292 fps=1.2 q=37.0 size=    4306kB time=00:00:08.91 bitrate=3955.5kbits/s speed=0.037x    frame=  294 fps=1.2 q=37.0 size=    4306kB time=00:00:09.00 bitrate=3919.0kbits/s speed=0.0372x    frame=  295 fps=1.2 q=37.0 size=    4306kB time=00:00:09.04 bitrate=3900.8kbits/s speed=0.0373x    frame=  297 fps=1.2 q=37.0 size=    4306kB time=00:00:09.12 bitrate=3865.3kbits/s speed=0.0375x    frame=  298 fps=1.2 q=37.0 size=    4306kB time=00:00:09.16 bitrate=3847.6kbits/s speed=0.0371x    frame=  300 fps=1.2 q=37.0 size=    4306kB time=00:00:09.25 bitrate=3813.1kbits/s speed=0.0373x    frame=  303 fps=1.2 q=37.0 size=    4306kB time=00:00:09.37 bitrate=3762.3kbits/s speed=0.0376x    frame=  304 fps=1.2 q=37.0 size=    4306kB time=00:00:09.41 bitrate=3745.5kbits/s speed=0.0375x    frame=  306 fps=1.2 q=37.0 size=    4306kB time=00:00:09.50 bitrate=3712.8kbits/s speed=0.0376x    frame=  309 fps=1.2 q=37.0 size=    4306kB time=00:00:09.62 bitrate=3664.6kbits/s speed=0.0378x    frame=  310 fps=1.2 q=37.0 size=    4306kB time=00:00:09.66 bitrate=3648.7kbits/s speed=0.0379x    frame=  312 fps=1.2 q=37.0 size=    4306kB time=00:00:09.75 bitrate=3617.6kbits/s speed=0.0378x    frame=  314 fps=1.2 q=37.0 size=    4306kB time=00:00:09.83 bitrate=3587.1kbits/s speed=0.0379x    frame=  318 fps=1.2 q=37.0 size=    7940kB time=00:00:10.00 bitrate=6503.6kbits/s speed=0.0383x    frame=  320 fps=1.2 q=37.0 size=    7940kB time=00:00:10.08 bitrate=6450.1kbits/s speed=0.0384x    frame=  321 fps=1.2 q=34.0 size=    7940kB time=00:00:10.12 bitrate=6423.3kbits/s speed=0.0384x    frame=  322 fps=1.2 q=37.0 size=    7940kB time=00:00:10.16 bitrate=6396.8kbits/s speed=0.0384x    frame=  324 fps=1.2 q=37.0 size=    7940kB time=00:00:10.25 bitrate=6345.0kbits/s speed=0.0386x    frame=  326 fps=1.2 q=37.0 size=    8139kB time=00:00:10.33 bitrate=6451.9kbits/s speed=0.0388x    frame=  332 fps=1.2 q=36.0 size=    8139kB time=00:00:10.58 bitrate=6299.5kbits/s speed=0.0396x    frame=  334 fps=1.2 q=36.0 size=    8139kB time=00:00:10.66 bitrate=6249.9kbits/s speed=0.0398x    frame=  336 fps=1.2 q=34.0 size=    8139kB time=00:00:10.75 bitrate=6201.7kbits/s speed=0.04x    frame=  338 fps=1.3 q=36.0 size=    8139kB time=00:00:10.83 bitrate=6154.2kbits/s speed=0.0402x    frame=  340 fps=1.3 q=36.0 size=    8139kB time=00:00:10.91 bitrate=6106.8kbits/s speed=0.0404x    frame=  343 fps=1.3 q=36.0 size=    8139kB time=00:00:11.04 bitrate=6037.7kbits/s speed=0.0406x    frame=  345 fps=1.3 q=36.0 size=    8139kB time=00:00:11.12 bitrate=5992.6kbits/s speed=0.0407x    frame=  346 fps=1.3 q=36.0 size=    8139kB time=00:00:11.16 bitrate=5970.1kbits/s speed=0.0407x    frame=  347 fps=1.3 q=36.0 size=    8139kB time=00:00:11.20 bitrate=5948.3kbits/s speed=0.0407x    frame=  349 fps=1.3 q=36.0 size=    8139kB time=00:00:11.29 bitrate=5904.0kbits/s speed=0.0409x    frame=  350 fps=1.3 q=36.0 size=    8139kB time=00:00:11.33 bitrate=5882.7kbits/s speed=0.0409x    frame=  353 fps=1.3 q=36.0 size=    8139kB time=00:00:11.45 bitrate=5818.5kbits/s speed=0.041x    frame=  354 fps=1.3 q=36.0 size=    8139kB time=00:00:11.50 bitrate=5797.3kbits/s speed=0.041x    frame=  355 fps=1.3 q=36.0 size=    8139kB time=00:00:11.54 bitrate=5776.2kbits/s speed=0.0411x    frame=  357 fps=1.3 q=36.0 size=    8139kB time=00:00:11.62 bitrate=5734.9kbits/s speed=0.0413x    frame=  358 fps=1.3 q=36.0 size=    8139kB time=00:00:11.66 bitrate=5714.3kbits/s speed=0.0413x    frame=  359 fps=1.3 q=36.0 size=    8139kB time=00:00:11.70 bitrate=5694.3kbits/s speed=0.0414x    frame=  360 fps=1.3 q=36.0 size=    8139kB time=00:00:11.75 bitrate=5673.9kbits/s speed=0.0413x    frame=  361 fps=1.3 q=36.0 size=    8139kB time=00:00:11.79 bitrate=5653.7kbits/s speed=0.0413x    frame=  364 fps=1.3 q=36.0 size=    8139kB time=00:00:11.91 bitrate=5594.4kbits/s speed=0.0415x    frame=  366 fps=1.3 q=35.0 size=    8139kB time=00:00:12.00 bitrate=5555.7kbits/s speed=0.0417x    frame=  367 fps=1.3 q=36.0 size=    8139kB time=00:00:12.04 bitrate=5536.3kbits/s speed=0.0418x    frame=  368 fps=1.3 q=36.0 size=    8139kB time=00:00:12.08 bitrate=5517.6kbits/s speed=0.0417x    frame=  369 fps=1.3 q=35.0 size=    8139kB time=00:00:12.12 bitrate=5498.5kbits/s speed=0.0417x    frame=  372 fps=1.3 q=35.0 size=    8139kB time=00:00:12.25 bitrate=5442.3kbits/s speed=0.042x    frame=  374 fps=1.3 q=35.0 size=    8139kB time=00:00:12.33 bitrate=5405.7kbits/s speed=0.0421x    frame=  376 fps=1.3 q=35.0 size=    8139kB time=00:00:12.41 bitrate=5369.2kbits/s speed=0.0421x    frame=  377 fps=1.3 q=35.0 size=    8139kB time=00:00:12.45 bitrate=5351.5kbits/s speed=0.0422x    frame=  382 fps=1.3 q=35.0 size=    8139kB time=00:00:12.66 bitrate=5263.2kbits/s speed=0.0425x    frame=  383 fps=1.3 q=35.0 size=    8139kB time=00:00:12.70 bitrate=5246.2kbits/s speed=0.0426x    frame=  388 fps=1.3 q=35.0 size=    8139kB time=00:00:12.91 bitrate=5161.3kbits/s speed=0.0429x    frame=  390 fps=1.3 q=35.0 size=    8139kB time=00:00:13.00 bitrate=5128.4kbits/s speed=0.043x    frame=  393 fps=1.3 q=34.0 size=    8139kB time=00:00:13.12 bitrate=5079.6kbits/s speed=0.0433x    frame=  394 fps=1.3 q=34.0 size=    8139kB time=00:00:13.16 bitrate=5063.4kbits/s speed=0.0432x    frame=  399 fps=1.3 q=34.0 size=    8139kB time=00:00:13.37 bitrate=4984.6kbits/s speed=0.0436x    frame=  400 fps=1.3 q=34.0 size=    8139kB time=00:00:13.41 bitrate=4969.0kbits/s speed=0.0435x    frame=  403 fps=1.3 q=34.0 size=    8139kB time=00:00:13.54 bitrate=4923.1kbits/s speed=0.0438x    frame=  405 fps=1.3 q=34.0 size=    8139kB time=00:00:13.62 bitrate=4893.2kbits/s speed=0.044x    frame=  406 fps=1.3 q=34.0 size=    8139kB time=00:00:13.66 bitrate=4878.1kbits/s speed=0.044x    frame=  408 fps=1.3 q=34.0 size=    8139kB time=00:00:13.75 bitrate=4848.7kbits/s speed=0.044x    frame=  411 fps=1.3 q=34.0 size=    8139kB time=00:00:13.87 bitrate=4805.0kbits/s speed=0.0443x    frame=  413 fps=1.3 q=33.0 size=    8139kB time=00:00:13.95 bitrate=4776.4kbits/s speed=0.0444x    frame=  414 fps=1.3 q=34.0 size=    8139kB time=00:00:14.00 bitrate=4762.1kbits/s speed=0.0443x    frame=  419 fps=1.3 q=33.0 size=    8139kB time=00:00:14.20 bitrate=4692.4kbits/s speed=0.0448x    frame=  420 fps=1.3 q=33.0 size=    8139kB time=00:00:14.25 bitrate=4678.6kbits/s speed=0.0447x    frame=  423 fps=1.3 q=33.0 size=    8139kB time=00:00:14.37 bitrate=4637.9kbits/s speed=0.045x    frame=  426 fps=1.3 q=33.0 size=    8139kB time=00:00:14.50 bitrate=4597.9kbits/s speed=0.045x    frame=  428 fps=1.3 q=33.0 size=    8139kB time=00:00:14.58 bitrate=4571.7kbits/s speed=0.0452x    frame=  430 fps=1.3 q=33.0 size=    8139kB time=00:00:14.66 bitrate=4545.6kbits/s speed=0.0453x    frame=  431 fps=1.3 q=33.0 size=    8139kB time=00:00:14.70 bitrate=4532.9kbits/s speed=0.0453x    frame=  432 fps=1.3 q=33.0 size=    8139kB time=00:00:14.75 bitrate=4520.0kbits/s speed=0.0453x    frame=  435 fps=1.3 q=32.0 size=    8139kB time=00:00:14.87 bitrate=4482.0kbits/s speed=0.0456x    frame=  437 fps=1.3 q=32.0 size=    8139kB time=00:00:14.95 bitrate=4457.1kbits/s speed=0.0457x    frame=  438 fps=1.3 q=32.0 size=    8139kB time=00:00:15.00 bitrate=4444.7kbits/s speed=0.0458x    frame=  439 fps=1.3 q=32.0 size=    8139kB time=00:00:15.04 bitrate=4432.2kbits/s speed=0.0453x    frame=  441 fps=1.3 q=32.0 size=    8139kB time=00:00:15.12 bitrate=4407.9kbits/s speed=0.0454x    frame=  442 fps=1.3 q=32.0 size=    8139kB time=00:00:15.16 bitrate=4395.7kbits/s speed=0.0455x    frame=  445 fps=1.3 q=32.0 size=   10812kB time=00:00:15.29 bitrate=5791.6kbits/s speed=0.0456x    frame=  446 fps=1.3 q=32.0 size=   10812kB time=00:00:15.33 bitrate=5776.1kbits/s speed=0.0454x    frame=  447 fps=1.3 q=32.0 size=   10812kB time=00:00:15.37 bitrate=5760.3kbits/s speed=0.0454x    frame=  448 fps=1.3 q=32.0 size=   10812kB time=00:00:15.41 bitrate=5744.6kbits/s speed=0.0455x    frame=  450 fps=1.3 q=32.0 size=   10812kB time=00:00:15.50 bitrate=5713.9kbits/s speed=0.0456x    frame=  452 fps=1.3 q=32.0 size=   10812kB time=00:00:15.58 bitrate=5683.4kbits/s speed=0.0455x    frame=  454 fps=1.3 q=32.0 size=   10812kB time=00:00:15.66 bitrate=5653.0kbits/s speed=0.0456x    frame=  455 fps=1.3 q=32.0 size=   10812kB time=00:00:15.70 bitrate=5638.2kbits/s speed=0.0455x    frame=  457 fps=1.3 q=32.0 size=   10812kB time=00:00:15.79 bitrate=5608.2kbits/s speed=0.0457x    frame=  459 fps=1.3 q=32.0 size=   10812kB time=00:00:15.87 bitrate=5578.9kbits/s speed=0.0456x    frame=  461 fps=1.3 q=32.0 size=   10812kB time=00:00:15.95 bitrate=5549.9kbits/s speed=0.0457x    frame=  464 fps=1.3 q=32.0 size=   10812kB time=00:00:16.08 bitrate=5506.8kbits/s speed=0.0457x    frame=  465 fps=1.3 q=32.0 size=   10812kB time=00:00:16.12 bitrate=5492.4kbits/s speed=0.0457x    frame=  467 fps=1.3 q=32.0 size=   10812kB time=00:00:16.20 bitrate=5464.3kbits/s speed=0.0458x    frame=  468 fps=1.3 q=32.0 size=   10812kB time=00:00:16.25 bitrate=5450.2kbits/s speed=0.0457x    frame=  469 fps=1.3 q=32.0 size=   10812kB time=00:00:16.29 bitrate=5436.1kbits/s speed=0.0457x    frame=  471 fps=1.3 q=32.0 size=   10812kB time=00:00:16.37 bitrate=5408.6kbits/s speed=0.0457x    frame=  473 fps=1.3 q=32.0 size=   10812kB time=00:00:16.45 bitrate=5381.3kbits/s speed=0.0458x    frame=  474 fps=1.3 q=32.0 size=   10812kB time=00:00:16.50 bitrate=5367.6kbits/s speed=0.0458x    frame=  475 fps=1.3 q=32.0 size=   10812kB time=00:00:16.54 bitrate=5354.0kbits/s speed=0.0459x    frame=  476 fps=1.3 q=32.0 size=   10812kB time=00:00:16.58 bitrate=5340.7kbits/s speed=0.0456x    frame=  478 fps=1.3 q=32.0 size=   10812kB time=00:00:16.66 bitrate=5313.8kbits/s speed=0.0457x    frame=  481 fps=1.3 q=32.0 size=   10812kB time=00:00:16.79 bitrate=5274.3kbits/s speed=0.046x    frame=  482 fps=1.3 q=32.0 size=   10812kB time=00:00:16.83 bitrate=5261.4kbits/s speed=0.0457x    frame=  484 fps=1.3 q=32.0 size=   10812kB time=00:00:16.91 bitrate=5235.3kbits/s speed=0.0458x    frame=  486 fps=1.3 q=32.0 size=   10812kB time=00:00:17.00 bitrate=5209.7kbits/s speed=0.0459x    frame=  488 fps=1.3 q=32.0 size=   10812kB time=00:00:17.08 bitrate=5184.4kbits/s speed=0.0458x    frame=  490 fps=1.3 q=32.0 size=   10812kB time=00:00:17.16 bitrate=5159.1kbits/s speed=0.0459x    frame=  494 fps=1.3 q=32.0 size=   10812kB time=00:00:17.33 bitrate=5109.6kbits/s speed=0.0456x    frame=  496 fps=1.3 q=32.0 size=   10812kB time=00:00:17.41 bitrate=5085.0kbits/s speed=0.0458x    frame=  498 fps=1.3 q=32.0 size=   10812kB time=00:00:17.50 bitrate=5060.9kbits/s speed=0.0459x    frame=  499 fps=1.3 q=32.0 size=   10812kB time=00:00:17.54 bitrate=5048.8kbits/s speed=0.046x    frame=  500 fps=1.3 q=32.0 size=   10812kB time=00:00:17.58 bitrate=5037.0kbits/s speed=0.0458x    frame=  500 fps=1.2 q=-1.0 Lsize=   15121kB time=00:00:20.70 bitrate=5981.5kbits/s speed=0.0481x    
video:15116kB audio:0kB subtitle:0kB other streams:0kB global headers:0kB muxing overhead: 0.030816%
bench: utime=1617.236s
bench: maxrss=2794888kB
[libx264 @ 0x312e1c0] frame I:3     Avg QP:27.21  size:164048
[libx264 @ 0x312e1c0] frame P:268   Avg QP:34.59  size: 39929
[libx264 @ 0x312e1c0] frame B:229   Avg QP:34.79  size: 18713
[libx264 @ 0x312e1c0] consecutive B-frames: 36.2%  7.6% 18.0% 17.6% 11.0%  9.6%  0.0%  0.0%  0.0%
[libx264 @ 0x312e1c0] mb I  I16..4: 20.3% 75.4%  4.3%
[libx264 @ 0x312e1c0] mb P  I16..4: 16.0% 25.8%  0.2%  P16..4: 23.4%  1.4%  1.1%  0.0%  0.0%    skip:32.2%
[libx264 @ 0x312e1c0] mb B  I16..4:  0.8%  1.5%  0.0%  B16..8: 29.5%  1.9%  0.3%  direct: 0.5%  skip:65.4%  L0:42.0% L1:56.2% BI: 1.8%
[libx264 @ 0x312e1c0] final ratefactor: 29.83
[libx264 @ 0x312e1c0] 8x8 transform intra:61.9% inter:89.2%
[libx264 @ 0x312e1c0] direct mvs  spatial:99.1% temporal:0.9%
[libx264 @ 0x312e1c0] coded y,uvDC,uvAC intra: 11.2% 14.4% 0.6% inter: 2.8% 2.1% 0.0%
[libx264 @ 0x312e1c0] i16 v,h,dc,p: 23% 27%  8% 41%
[libx264 @ 0x312e1c0] i8 v,h,dc,ddl,ddr,vr,hd,vl,hu: 21% 13% 43%  3%  4%  4%  4%  3%  4%
[libx264 @ 0x312e1c0] i4 v,h,dc,ddl,ddr,vr,hd,vl,hu: 15% 16%  8%  7% 11% 11% 14%  7% 11%
[libx264 @ 0x312e1c0] i8c dc,h,v,p: 77% 14%  7%  2%
[libx264 @ 0x312e1c0] Weighted P-Frames: Y:1.5% UV:1.1%
[libx264 @ 0x312e1c0] ref P L0: 60.6% 14.5% 10.5%  3.5%  2.3%  1.8%  1.6%  0.9%  0.8%  0.8%  0.6%  0.5%  0.5%  0.5%  0.4%  0.3%
[libx264 @ 0x312e1c0] ref B L0: 87.4%  5.8%  2.6%  1.0%  0.8%  0.6%  0.4%  0.3%  0.3%  0.2%  0.2%  0.2%  0.1%  0.1%  0.1%
[libx264 @ 0x312e1c0] ref B L1: 98.3%  1.7%
[libx264 @ 0x312e1c0] kb/s:5943.70
